<svg xmlns="http://www.w3.org/2000/svg" width="24" height="24" viewBox="0 0 24 24">
    <title>neu</title>
    <path d="M16.289,13.9h-1.4a.183.183,0,0,0-.175.188v.82c0,.739-1.594,1.055-2.438,1.055a3.82,3.82,0,0,1-3.808-4.078,3.619,3.619,0,0,1,3.715-3.856c.96,0,2.378.34,2.378,1.078v.821a.185.185,0,0,0,.188.187h1.383a.185.185,0,0,0,.187-.187V8.648c0-1.863-3.035-2.273-4.2-2.273a5.442,5.442,0,0,0-5.567,5.566,5.532,5.532,0,0,0,5.626,5.684c1.652,0,4.288-.609,4.288-2.262V14.086A.192.192,0,0,0,16.289,13.9Z" style="fill:#989898" />
    <path d="M12,3a9,9,0,1,0,9,9A9,9,0,0,0,12,3Zm0,16.5A7.5,7.5,0,1,1,19.5,12,7.507,7.507,0,0,1,12,19.5Z" style="fill:#989898" />
</svg>