<svg xmlns="http://www.w3.org/2000/svg" width="135.008" height="26" viewBox="0 0 135.008 26">
  <title>logo_lernsax_mobil</title>
  <path d="M45.3,22.7V2.582h2.915V20.364h7.725V22.7Z" fill="#313237"/>
  <path d="M67.427,22.55a15.5,15.5,0,0,1-3.469.467c-4.956,0-6.88-3.382-6.88-7.93,0-3.789,1.662-6.588,5.659-6.588,3.381,0,5.014,2.391,5.014,5.569v.669H59.7c0,3.12,1.6,6.239,5.1,6.239a7.244,7.244,0,0,0,2.623-.495Zm-2.3-9.561a2.38,2.38,0,0,0-2.305-2.453c-.077,0-.153,0-.23,0a2.684,2.684,0,0,0-2.566,1.6,2.269,2.269,0,0,0-.2.846Z" fill="#313237"/>
  <path d="M71.013,22.7V8.82h2.623v2.8h.059A4.348,4.348,0,0,1,77.982,8.5v2.857c-3.353,0-4.344,2.42-4.344,5.451V22.7Z" fill="#313237"/>
  <path d="M88.912,22.7V15.117c0-.554,0-1.138-.029-1.72-.086-1.286-.379-2.274-1.866-2.274-2.565,0-3.672,3.643-3.672,5.684V22.7H80.721V8.82h2.624v2.974H83.4a4.608,4.608,0,0,1,4.4-3.295c2.77,0,3.732,2.158,3.732,4.577V22.7Z" fill="#313237"/>
  <path d="M95.178,19.2a10.742,10.742,0,0,0,5.336,1.487c1.865,0,3.818-.788,3.818-2.974,0-2.1-1.72-2.945-3.265-3.877l-1.836-1.078c-2.245-1.254-4.373-2.391-4.373-5.306,0-3.877,3.323-5.189,6.676-5.189a18.729,18.729,0,0,1,4.576.583v2.74a15.561,15.561,0,0,0-4.722-.991c-1.662,0-3.323.728-3.323,2.623,0,1.6,2.07,2.683,3.265,3.382l1.981,1.166c2.333,1.312,4.228,2.536,4.228,5.539,0,4.2-3.586,5.714-7.259,5.714a16.069,16.069,0,0,1-5.1-.79Z" fill="#313237"/>
  <path d="M117.1,22.7V20.976h-.06a3.964,3.964,0,0,1-3.585,2.041c-2.333,0-3.936-1.341-3.936-3.732,0-3.906,4.577-4.544,7.579-4.544V12.61a1.942,1.942,0,0,0-1.8-2.075,2.007,2.007,0,0,0-.329,0,1.986,1.986,0,0,0-2.208,1.738,1.955,1.955,0,0,0-.008.39h-2.77c0-3.087,2.42-4.169,5.19-4.169q4.543,0,4.544,4.459V22.7Zm0-6.209h-.525c-1.629,0-4.139.73-4.139,2.712a1.661,1.661,0,0,0,1.516,1.778c1.808,0,3.148-2.069,3.148-3.7Z" fill="#313237"/>
  <path d="M131.943,22.7l-3.381-5.042-3.44,5.042h-3.061l4.985-7.316-4.4-6.559h3.061l2.83,4.256,2.829-4.256h3.061l-4.4,6.559,4.985,7.316Z" fill="#313237"/>
  <g>
    <rect y="21.72" width="34.058" height="4.28" fill="#347e33"/>
    <path d="M4.269,0V18.4h25.52V0ZM26.625,15.184H7.433V3.219H26.625Z" fill="#313237"/>
  </g>
</svg>
